<?xml version="1.0" encoding="UTF-8" standalone="no"?>
<!-- Created with Inkscape (http://www.inkscape.org/) -->

<svg
   xmlns:dc="http://purl.org/dc/elements/1.1/"
   xmlns:cc="http://creativecommons.org/ns#"
   xmlns:rdf="http://www.w3.org/1999/02/22-rdf-syntax-ns#"
   xmlns:svg="http://www.w3.org/2000/svg"
   xmlns="http://www.w3.org/2000/svg"
   xmlns:sodipodi="http://sodipodi.sourceforge.net/DTD/sodipodi-0.dtd"
   xmlns:inkscape="http://www.inkscape.org/namespaces/inkscape"
   width="63.510826mm"
   height="65.164505mm"
   viewBox="0 0 63.510826 65.164505"
   version="1.1"
   id="svg8"
   inkscape:version="0.92.2 5c3e80d, 2017-08-06"
   sodipodi:docname="icon01.svg">
  <defs
     id="defs2" />
  <sodipodi:namedview
     id="base"
     pagecolor="#ffffff"
     bordercolor="#666666"
     borderopacity="1.0"
     inkscape:pageopacity="0.0"
     inkscape:pageshadow="2"
     inkscape:zoom="1.9945222"
     inkscape:cx="86.662631"
     inkscape:cy="158.16812"
     inkscape:document-units="mm"
     inkscape:current-layer="layer1"
     showgrid="false"
     inkscape:object-nodes="false"
     inkscape:snap-nodes="false"
     inkscape:window-width="1440"
     inkscape:window-height="855"
     inkscape:window-x="0"
     inkscape:window-y="1"
     inkscape:window-maximized="1"
     fit-margin-top="-10"
     fit-margin-left="-10"
     fit-margin-right="-10"
     fit-margin-bottom="-10"
     showguides="true"
     inkscape:guide-bbox="true" />
  <metadata
     id="metadata5">
    <rdf:RDF>
      <cc:Work
         rdf:about="">
        <dc:format>image/svg+xml</dc:format>
        <dc:type
           rdf:resource="http://purl.org/dc/dcmitype/StillImage" />
        <dc:title></dc:title>
      </cc:Work>
    </rdf:RDF>
  </metadata>
  <g
     inkscape:label="Layer 1"
     inkscape:groupmode="layer"
     id="layer1"
     transform="translate(-73.071323,-100.88538)">
    <g
       id="g897"
       transform="translate(-0.58072098,-1.5658743)"
       inkscape:export-filename="/Users/test/Downloads/rect943.png"
       inkscape:export-xdpi="300"
       inkscape:export-ydpi="300">
      <path
         inkscape:export-ydpi="300"
         inkscape:export-xdpi="300"
         inkscape:export-filename="/Users/test/rect943.png"
         inkscape:connector-curvature="0"
         id="path880"
         d="m 80.68982,162.98384 c -1.817877,-0.55298 -3.448389,-1.93193 -4.400437,-3.72154 -0.469595,-0.88272 -0.492641,-2.00288 -0.492641,-23.94478 0,-21.94192 0.02305,-23.06207 0.492641,-23.9448 0.68768,-1.29266 1.963913,-2.58988 3.211525,-3.26433 l 1.058334,-0.57212 h 24.870838 24.87082 l 1.07639,0.57615 c 0.59202,0.31688 1.50999,1.0561 2.03996,1.64271 1.85125,2.04912 1.80161,1.29131 1.71957,26.25037 l -0.0734,22.33076 -0.57615,1.07638 c -0.31688,0.59201 -1.05393,1.50802 -1.63788,2.03559 -2.04235,1.84514 -1.1037,1.78542 -27.66576,1.76008 -13.106848,-0.0125 -24.129055,-0.11352 -24.4938,-0.22447 z m 46.53049,-6.12923 c 0.86298,-0.30084 1.32641,-1.22198 0.9442,-1.87675 -0.11101,-0.19017 -1.93684,-2.83192 -4.05739,-5.87055 -5.17245,-7.41179 -5.36641,-7.49336 -9.16607,-3.85451 -1.88684,1.807 -2.32629,2.10325 -3.11996,2.10325 -0.50808,0 -1.11297,-0.0726 -1.34419,-0.16133 -0.23122,-0.0887 -2.9352,-3.45223 -6.00884,-7.47447 -3.07365,-4.02223 -5.953654,-7.7001 -6.400015,-8.17305 -0.967612,-1.02523 -1.962479,-1.12089 -2.751674,-0.26458 -0.795917,0.86361 -11.979004,23.36328 -11.979004,24.10101 0,0.61963 0.569413,1.29724 1.322916,1.57429 0.809509,0.29766 41.694517,0.19841 42.560027,-0.10331 z m -10.97302,-26.75365 c 1.45331,-0.42939 3.64516,-2.62124 4.07456,-4.07456 0.76466,-2.58805 0.22748,-4.70837 -1.67878,-6.62627 -1.8253,-1.83646 -3.94503,-2.3821 -6.49858,-1.6728 -1.27416,0.35393 -3.36458,2.22762 -3.96845,3.55703 -0.54559,1.20111 -0.63494,3.20704 -0.21087,4.7343 0.35689,1.28527 2.16527,3.27638 3.55032,3.90903 1.22856,0.56117 3.17739,0.63254 4.7318,0.17327 z"
         style="fill:#ffffff;fill-opacity:1;stroke:#010101;stroke-width:3;stroke-miterlimit:4;stroke-dasharray:none;stroke-opacity:1" />
      <rect
         inkscape:export-ydpi="300"
         inkscape:export-xdpi="300"
         inkscape:export-filename="/Users/test/rect943.png"
         y="111.97234"
         x="83.46579"
         height="37.867916"
         width="45.119236"
         id="rect943"
         style="opacity:1;fill:none;fill-opacity:1;fill-rule:nonzero;stroke:#ffd04c;stroke-width:5.80000019;stroke-linecap:round;stroke-linejoin:round;stroke-miterlimit:4;stroke-dasharray:11.60000053, 11.60000053;stroke-dashoffset:0;stroke-opacity:1" />
    </g>
  </g>
</svg>
